<svg xmlns="http://www.w3.org/2000/svg" width="181" height="144" viewBox="0 0 181 144"><defs><style>.a{fill:#f5f5f5;}.b{fill:#bb133e;}.c{opacity:0.11;}.d{fill:#fc685b;}</style></defs><g transform="translate(-477.771 -488.337)"><ellipse class="a" cx="68.5" cy="69.5" rx="68.5" ry="69.5" transform="translate(502.771 488.337)"/><ellipse class="a" cx="29.5" cy="30" rx="29.5" ry="30" transform="translate(477.771 488.337)"/><ellipse class="a" cx="26.5" cy="26" rx="26.5" ry="26" transform="translate(605.771 580.337)"/><g transform="translate(524.179 507.361)"><path class="b" d="M-531.9,511.989a6.841,6.841,0,0,0-5.919,3.436H-547.6a27.323,27.323,0,0,0-5.569-13.39l6.934-6.932a6.873,6.873,0,0,0,7.73-3.2,6.875,6.875,0,0,0-1.092-8.3,6.873,6.873,0,0,0-8.3-1.092,6.875,6.875,0,0,0-3.2,7.731l-6.932,6.933a27.319,27.319,0,0,0-13.39-5.569v-9.782a6.872,6.872,0,0,0,3.2-7.731A6.873,6.873,0,0,0-574.857,469a6.873,6.873,0,0,0-6.638,5.094,6.872,6.872,0,0,0,3.2,7.731v9.782a27.319,27.319,0,0,0-13.39,5.569l-6.931-6.933a6.873,6.873,0,0,0-3.2-7.731,6.872,6.872,0,0,0-8.3,1.092,6.872,6.872,0,0,0-1.092,8.3,6.872,6.872,0,0,0,7.731,3.2l6.933,6.932a27.329,27.329,0,0,0-5.568,13.39h-9.782a6.874,6.874,0,0,0-7.731-3.2,6.873,6.873,0,0,0-5.094,6.639,6.872,6.872,0,0,0,5.094,6.639,6.872,6.872,0,0,0,7.731-3.2h9.782a27.326,27.326,0,0,0,5.568,13.39l-6.933,6.932a6.874,6.874,0,0,0-7.731,3.2,6.872,6.872,0,0,0,1.092,8.3,6.873,6.873,0,0,0,8.3,1.092,6.873,6.873,0,0,0,3.2-7.73l6.931-6.934a27.3,27.3,0,0,0,13.39,5.568V555.9a6.872,6.872,0,0,0-3.2,7.73,6.873,6.873,0,0,0,6.638,5.1,6.874,6.874,0,0,0,6.639-5.1,6.871,6.871,0,0,0-3.2-7.73v-9.783a27.3,27.3,0,0,0,13.39-5.568l6.932,6.934a6.874,6.874,0,0,0,3.2,7.73,6.874,6.874,0,0,0,8.3-1.092,6.875,6.875,0,0,0,1.092-8.3,6.874,6.874,0,0,0-7.73-3.2l-6.934-6.932A27.321,27.321,0,0,0-547.6,522.3h9.782a6.859,6.859,0,0,0,8.294,2.993,6.861,6.861,0,0,0,4.391-7.647A6.863,6.863,0,0,0-531.9,511.989Z" transform="translate(624.719 -469)"/><path class="c" d="M-527.016,516.888a6.841,6.841,0,0,0-5.919,3.436h-9.782a27.324,27.324,0,0,0-5.569-13.39l6.934-6.932a6.852,6.852,0,0,0,7.486-2.819,6.852,6.852,0,0,0-.285-7.995,6.854,6.854,0,0,0-7.668-2.279c-5.685,27.518-30.881,43.7-50.782,52.381.3.44.615.875.943,1.3l-6.933,6.932a6.874,6.874,0,0,0-7.731,3.2,6.873,6.873,0,0,0,1.092,8.3,6.874,6.874,0,0,0,8.3,1.092,6.873,6.873,0,0,0,3.2-7.73l6.931-6.934a27.307,27.307,0,0,0,13.39,5.568V560.8a6.872,6.872,0,0,0-3.2,7.73,6.873,6.873,0,0,0,6.638,5.1,6.874,6.874,0,0,0,6.639-5.1,6.871,6.871,0,0,0-3.2-7.73v-9.783a27.307,27.307,0,0,0,13.39-5.568l6.932,6.934a6.874,6.874,0,0,0,3.2,7.73,6.875,6.875,0,0,0,8.3-1.092,6.874,6.874,0,0,0,1.092-8.3,6.874,6.874,0,0,0-7.73-3.2l-6.934-6.932a27.321,27.321,0,0,0,5.569-13.39h9.782a6.859,6.859,0,0,0,8.294,2.993,6.861,6.861,0,0,0,4.391-7.647A6.863,6.863,0,0,0-527.016,516.888Z" transform="translate(619.836 -473.898)"/><g transform="translate(29.243 30.962)"><path class="d" d="M-552.364,517.124a5.155,5.155,0,0,1-5.155,5.155,5.155,5.155,0,0,1-5.154-5.155,5.155,5.155,0,0,1,5.154-5.155A5.155,5.155,0,0,1-552.364,517.124Z" transform="translate(578.138 -511.969)"/><path class="d" d="M-552.364,555.278a5.155,5.155,0,0,1-5.155,5.155,5.155,5.155,0,0,1-5.154-5.155,5.155,5.155,0,0,1,5.154-5.155A5.155,5.155,0,0,1-552.364,555.278Z" transform="translate(578.138 -522.631)"/><path class="d" d="M-573.825,536.2a5.156,5.156,0,0,1-5.155,5.155,5.155,5.155,0,0,1-5.155-5.155,5.155,5.155,0,0,1,5.155-5.155A5.155,5.155,0,0,1-573.825,536.2Z" transform="translate(584.135 -517.3)"/><path class="d" d="M-530.9,536.2a5.155,5.155,0,0,1-5.155,5.155,5.155,5.155,0,0,1-5.155-5.155,5.155,5.155,0,0,1,5.155-5.155A5.155,5.155,0,0,1-530.9,536.2Z" transform="translate(572.141 -517.3)"/></g></g><g transform="translate(622.204 595.389)"><path class="b" d="M-600.536,480.2a1.782,1.782,0,0,0-1.542.9h-2.549a7.119,7.119,0,0,0-1.451-3.489l1.807-1.806a1.79,1.79,0,0,0,2.014-.834,1.791,1.791,0,0,0-.285-2.162,1.791,1.791,0,0,0-2.162-.285,1.791,1.791,0,0,0-.835,2.014l-1.806,1.806a7.117,7.117,0,0,0-3.489-1.451v-2.549a1.79,1.79,0,0,0,.834-2.014,1.791,1.791,0,0,0-1.73-1.327,1.791,1.791,0,0,0-1.729,1.327,1.79,1.79,0,0,0,.834,2.014v2.549a7.117,7.117,0,0,0-3.489,1.451l-1.806-1.806a1.791,1.791,0,0,0-.835-2.014,1.791,1.791,0,0,0-2.161.285,1.791,1.791,0,0,0-.285,2.162,1.791,1.791,0,0,0,2.014.834l1.806,1.806a7.121,7.121,0,0,0-1.451,3.489h-2.549a1.791,1.791,0,0,0-2.014-.834,1.791,1.791,0,0,0-1.327,1.73,1.79,1.79,0,0,0,1.327,1.73,1.79,1.79,0,0,0,2.014-.834h2.549a7.12,7.12,0,0,0,1.451,3.489l-1.806,1.806a1.791,1.791,0,0,0-2.014.834,1.79,1.79,0,0,0,.285,2.162,1.791,1.791,0,0,0,2.161.285,1.791,1.791,0,0,0,.835-2.014l1.806-1.807a7.114,7.114,0,0,0,3.489,1.451v2.549a1.79,1.79,0,0,0-.834,2.014,1.791,1.791,0,0,0,1.729,1.327,1.791,1.791,0,0,0,1.73-1.327,1.79,1.79,0,0,0-.834-2.014v-2.549a7.114,7.114,0,0,0,3.489-1.451l1.806,1.807a1.791,1.791,0,0,0,.835,2.014,1.791,1.791,0,0,0,2.162-.285,1.791,1.791,0,0,0,.285-2.162,1.791,1.791,0,0,0-2.014-.834l-1.807-1.806a7.118,7.118,0,0,0,1.451-3.489h2.549a1.787,1.787,0,0,0,2.161.78,1.787,1.787,0,0,0,1.144-1.992A1.788,1.788,0,0,0-600.536,480.2Z" transform="translate(624.719 -469)"/><path class="c" d="M-586.342,494.439a1.782,1.782,0,0,0-1.542.9h-2.549a7.119,7.119,0,0,0-1.451-3.489l1.807-1.806a1.785,1.785,0,0,0,1.95-.734,1.785,1.785,0,0,0-.074-2.083,1.786,1.786,0,0,0-2-.594c-1.481,7.169-8.046,11.386-13.231,13.647.079.115.16.228.246.338l-1.806,1.806a1.791,1.791,0,0,0-2.014.835,1.79,1.79,0,0,0,.285,2.162,1.791,1.791,0,0,0,2.161.285,1.791,1.791,0,0,0,.835-2.014l1.806-1.807a7.114,7.114,0,0,0,3.489,1.451v2.549a1.791,1.791,0,0,0-.834,2.014,1.791,1.791,0,0,0,1.73,1.327,1.791,1.791,0,0,0,1.73-1.327,1.79,1.79,0,0,0-.834-2.014v-2.549a7.114,7.114,0,0,0,3.489-1.451l1.806,1.807a1.791,1.791,0,0,0,.835,2.014,1.791,1.791,0,0,0,2.161-.285,1.791,1.791,0,0,0,.285-2.162,1.791,1.791,0,0,0-2.014-.835l-1.807-1.806a7.118,7.118,0,0,0,1.451-3.489h2.549a1.787,1.787,0,0,0,2.161.78,1.787,1.787,0,0,0,1.144-1.992A1.788,1.788,0,0,0-586.342,494.439Z" transform="translate(610.525 -483.239)"/><g transform="translate(7.619 8.067)"><path class="d" d="M-559.987,513.312a1.343,1.343,0,0,1-1.343,1.343,1.343,1.343,0,0,1-1.343-1.343,1.343,1.343,0,0,1,1.343-1.343A1.343,1.343,0,0,1-559.987,513.312Z" transform="translate(566.702 -511.969)"/><path class="d" d="M-559.987,551.466a1.343,1.343,0,0,1-1.343,1.343,1.343,1.343,0,0,1-1.343-1.343,1.343,1.343,0,0,1,1.343-1.343A1.343,1.343,0,0,1-559.987,551.466Z" transform="translate(566.702 -542.96)"/><path class="d" d="M-581.449,532.389a1.343,1.343,0,0,1-1.343,1.343,1.343,1.343,0,0,1-1.343-1.343,1.343,1.343,0,0,1,1.343-1.343A1.343,1.343,0,0,1-581.449,532.389Z" transform="translate(584.135 -527.465)"/><path class="d" d="M-538.526,532.389a1.343,1.343,0,0,1-1.343,1.343,1.343,1.343,0,0,1-1.343-1.343,1.343,1.343,0,0,1,1.343-1.343A1.343,1.343,0,0,1-538.526,532.389Z" transform="translate(549.27 -527.465)"/></g></g><g transform="translate(490.978 503.085)"><path class="b" d="M-600.536,480.2a1.782,1.782,0,0,0-1.542.9h-2.549a7.119,7.119,0,0,0-1.451-3.489l1.807-1.806a1.79,1.79,0,0,0,2.014-.834,1.791,1.791,0,0,0-.285-2.162,1.791,1.791,0,0,0-2.162-.285,1.791,1.791,0,0,0-.835,2.014l-1.806,1.806a7.117,7.117,0,0,0-3.489-1.451v-2.549a1.79,1.79,0,0,0,.834-2.014,1.791,1.791,0,0,0-1.73-1.327,1.791,1.791,0,0,0-1.729,1.327,1.79,1.79,0,0,0,.834,2.014v2.549a7.117,7.117,0,0,0-3.489,1.451l-1.806-1.806a1.791,1.791,0,0,0-.835-2.014,1.791,1.791,0,0,0-2.161.285,1.791,1.791,0,0,0-.285,2.162,1.791,1.791,0,0,0,2.014.834l1.806,1.806a7.121,7.121,0,0,0-1.451,3.489h-2.549a1.791,1.791,0,0,0-2.014-.834,1.791,1.791,0,0,0-1.327,1.73,1.79,1.79,0,0,0,1.327,1.73,1.79,1.79,0,0,0,2.014-.834h2.549a7.12,7.12,0,0,0,1.451,3.489l-1.806,1.806a1.791,1.791,0,0,0-2.014.834,1.79,1.79,0,0,0,.285,2.162,1.791,1.791,0,0,0,2.161.285,1.791,1.791,0,0,0,.835-2.014l1.806-1.807a7.114,7.114,0,0,0,3.489,1.451v2.549a1.79,1.79,0,0,0-.834,2.014,1.791,1.791,0,0,0,1.729,1.327,1.791,1.791,0,0,0,1.73-1.327,1.79,1.79,0,0,0-.834-2.014v-2.549a7.114,7.114,0,0,0,3.489-1.451l1.806,1.807a1.791,1.791,0,0,0,.835,2.014,1.791,1.791,0,0,0,2.162-.285,1.791,1.791,0,0,0,.285-2.162,1.791,1.791,0,0,0-2.014-.834l-1.807-1.806a7.118,7.118,0,0,0,1.451-3.489h2.549a1.787,1.787,0,0,0,2.161.78,1.787,1.787,0,0,0,1.144-1.992A1.788,1.788,0,0,0-600.536,480.2Z" transform="translate(624.719 -469)"/><path class="c" d="M-586.342,494.439a1.782,1.782,0,0,0-1.542.9h-2.549a7.119,7.119,0,0,0-1.451-3.489l1.807-1.806a1.785,1.785,0,0,0,1.95-.734,1.785,1.785,0,0,0-.074-2.083,1.786,1.786,0,0,0-2-.594c-1.481,7.169-8.046,11.386-13.231,13.647.079.115.16.228.246.338l-1.806,1.806a1.791,1.791,0,0,0-2.014.835,1.79,1.79,0,0,0,.285,2.162,1.791,1.791,0,0,0,2.161.285,1.791,1.791,0,0,0,.835-2.014l1.806-1.807a7.114,7.114,0,0,0,3.489,1.451v2.549a1.791,1.791,0,0,0-.834,2.014,1.791,1.791,0,0,0,1.73,1.327,1.791,1.791,0,0,0,1.73-1.327,1.79,1.79,0,0,0-.834-2.014v-2.549a7.114,7.114,0,0,0,3.489-1.451l1.806,1.807a1.791,1.791,0,0,0,.835,2.014,1.791,1.791,0,0,0,2.161-.285,1.791,1.791,0,0,0,.285-2.162,1.791,1.791,0,0,0-2.014-.835l-1.807-1.806a7.118,7.118,0,0,0,1.451-3.489h2.549a1.787,1.787,0,0,0,2.161.78,1.787,1.787,0,0,0,1.144-1.992A1.788,1.788,0,0,0-586.342,494.439Z" transform="translate(610.525 -483.239)"/><g transform="translate(7.619 8.067)"><path class="d" d="M-559.987,513.312a1.343,1.343,0,0,1-1.343,1.343,1.343,1.343,0,0,1-1.343-1.343,1.343,1.343,0,0,1,1.343-1.343A1.343,1.343,0,0,1-559.987,513.312Z" transform="translate(566.702 -511.969)"/><path class="d" d="M-559.987,551.466a1.343,1.343,0,0,1-1.343,1.343,1.343,1.343,0,0,1-1.343-1.343,1.343,1.343,0,0,1,1.343-1.343A1.343,1.343,0,0,1-559.987,551.466Z" transform="translate(566.702 -542.96)"/><path class="d" d="M-581.449,532.389a1.343,1.343,0,0,1-1.343,1.343,1.343,1.343,0,0,1-1.343-1.343,1.343,1.343,0,0,1,1.343-1.343A1.343,1.343,0,0,1-581.449,532.389Z" transform="translate(584.135 -527.465)"/><path class="d" d="M-538.526,532.389a1.343,1.343,0,0,1-1.343,1.343,1.343,1.343,0,0,1-1.343-1.343,1.343,1.343,0,0,1,1.343-1.343A1.343,1.343,0,0,1-538.526,532.389Z" transform="translate(549.27 -527.465)"/></g></g></g></svg>